HIERARCHY
ROOT Hips
{
    OFFSET 0.000000 0.000000 0.000000
    CHANNELS 6 Xposition Yposition Zposition Zrotation Xrotation Yrotation
    JOINT Spine
    {
        OFFSET -0.000000 14.517291 0.000000
        CHANNELS 3 Zrotation Xrotation Yrotation
        JOINT Spine1
        {
            OFFSET -0.000000 37.558300 0.000000
            CHANNELS 3 Zrotation Xrotation Yrotation
            JOINT Neck
            {
                OFFSET -0.000000 37.404057 3.400369
                CHANNELS 3 Zrotation Xrotation Yrotation
                JOINT Head
                {
                    OFFSET -0.000000 24.785618 -3.540803
                    CHANNELS 3 Zrotation Xrotation Yrotation
                    End Site
                    {
                        OFFSET -0.000000 35.408028 0.000000
                    }
                }
            }
            JOINT LeftShoulder
            {
                OFFSET 6.992933 33.973492 -0.192664
                CHANNELS 3 Zrotation Xrotation Yrotation
                JOINT LeftArm
                {
                    OFFSET 21.527611 0.000000 0.000000
                    CHANNELS 3 Zrotation Xrotation Yrotation
                    JOINT LeftForeArm
                    {
                        OFFSET 56.353916 0.000000 0.000000
                        CHANNELS 3 Zrotation Xrotation Yrotation
                        JOINT LeftHand
                        {
                            OFFSET 47.774071 0.000000 0.000000
                            CHANNELS 3 Zrotation Xrotation Yrotation
                            End Site
                            {
                                OFFSET 26.556021 0.000000 0.000000
                            }
                        }
                    }
                }
            }
            JOINT RightShoulder
            {
                OFFSET -7.065357 33.973492 -0.192664
                CHANNELS 3 Zrotation Xrotation Yrotation
                JOINT RightArm
                {
                    OFFSET -21.527611 0.000000 0.000000
                    CHANNELS 3 Zrotation Xrotation Yrotation
                    JOINT RightForeArm
                    {
                        OFFSET -56.353916 0.000000 0.000000
                        CHANNELS 3 Zrotation Xrotation Yrotation
                        JOINT RightHand
                        {
                            OFFSET -47.774071 0.000000 0.000000
                            CHANNELS 3 Zrotation Xrotation Yrotation
                            End Site
                            {
                                OFFSET -26.556021 0.000000 0.000000
                            }
                        }
                    }
                }
            }
        }
    }
    JOINT LeftUpLeg
    {
        OFFSET 17.704014 0.000000 0.000000
        CHANNELS 3 Zrotation Xrotation Yrotation
        JOINT LeftLeg
        {
            OFFSET -0.000000 -81.181816 0.000000
            CHANNELS 3 Zrotation Xrotation Yrotation
            JOINT LeftFoot
            {
                OFFSET -0.000000 -62.821102 0.000000
                CHANNELS 3 Zrotation Xrotation Yrotation
                JOINT LeftToeBase
                {
                    OFFSET -0.000000 -11.507608 26.556021
                    CHANNELS 3 Zrotation Xrotation Yrotation
                    End Site
                    {
                        OFFSET -0.000000 0.000000 7.081605
                    }
                }
            }
        }
    }
    JOINT RightUpLeg
    {
        OFFSET -17.704014 0.000000 0.000000
        CHANNELS 3 Zrotation Xrotation Yrotation
        JOINT RightLeg
        {
            OFFSET -0.000000 -81.181816 0.000000
            CHANNELS 3 Zrotation Xrotation Yrotation
            JOINT RightFoot
            {
                OFFSET -0.000000 -62.821102 0.000000
                CHANNELS 3 Zrotation Xrotation Yrotation
                JOINT RightToeBase
                {
                    OFFSET -0.000000 -11.507608 26.556021
                    CHANNELS 3 Zrotation Xrotation Yrotation
                    End Site
                    {
                        OFFSET -0.000000 0.000000 7.081605
                    }
                }
            }
        }
    }
}
MOTION
Frames:    5
Frame Time:    0.008333
11.720999    155.233734    -121.030739    -1.046541    -5.852449    40.716908    1.187694    -3.847721    1.146198    -2.509737    5.412678    0.479230    -13.233533    5.075132    -24.284550    28.264917    5.085678    -21.370461    14.690795    -3.167533    -20.104242    -12.937099    28.060972    5.945246    -28.326591    28.138330    -109.966911    -3.356833    -13.203090    -18.523941    -24.836697    -8.599942    -1.349979    33.798061    -21.799700    78.466629    2.327433    -4.143532    22.345812    -4.195147    -5.683698    29.018202    19.172775    -2.955455    1.305057    -14.270177    36.102703    -18.134943    4.730793    -27.959190    44.422703    0.000000    0.000000    0.000000    -15.638394    -17.058405    -12.686348    7.504097    18.251730    -15.047266    4.389448    12.771656    -12.698821    0.000000    0.000000    0.000000    
11.736591    155.234833    -121.034981    -1.043587    -5.847739    40.747749    1.170715    -3.843364    1.135513    -2.487347    5.426406    0.475150    -13.248680    5.075095    -24.307865    28.273138    5.066703    -21.388187    14.672227    -3.119683    -20.116579    -13.020608    28.104843    6.052277    -28.162289    27.905491    -110.074287    -3.393721    -13.268344    -18.480633    -24.852110    -8.583549    -1.371478    33.750824    -21.791445    78.441978    2.314379    -4.091326    22.298260    -4.218333    -5.641677    29.213829    19.162195    -2.970150    1.327502    -14.241777    36.115101    -18.153448    4.705648    -27.967871    44.388588    0.000000    0.000000    0.000000    -15.653384    -17.040762    -12.674756    7.509479    18.241964    -15.051727    4.383183    12.751373    -12.710957    0.000000    0.000000    0.000000    
11.753691    155.237137    -121.036743    -1.055467    -5.832872    40.784714    1.161205    -3.861303    1.116978    -2.478035    5.443940    0.468805    -13.257475    5.069216    -24.320580    28.288469    5.051433    -21.394825    14.657043    -3.082681    -20.134138    -13.090252    28.131971    6.134677    -28.030050    27.706839    -110.156136    -3.427053    -13.326815    -18.484653    -24.843298    -8.600098    -1.392834    33.774529    -21.784477    78.442085    2.392915    -4.115073    22.214741    -4.253174    -5.680395    29.020823    19.161121    -3.003647    1.335276    -14.235040    36.125999    -18.189280    4.712434    -27.960714    44.397221    0.000000    0.000000    0.000000    -15.665132    -17.038017    -12.685534    7.508723    18.231136    -15.069293    4.395452    12.747595    -12.727612    0.000000    0.000000    0.000000    
11.766516    155.239441    -121.040253    -1.069774    -5.822853    40.811180    1.164345    -3.869691    1.100116    -2.482137    5.447452    0.463363    -13.262681    5.061424    -24.325890    28.294920    5.045882    -21.396999    14.637401    -3.026772    -20.154638    -13.119717    28.122570    6.186047    -27.907318    27.532070    -110.216034    -3.482691    -13.351859    -18.506060    -24.836424    -8.596951    -1.409619    33.775951    -21.768641    78.448898    2.423738    -4.122979    22.135620    -4.272189    -5.695291    28.965750    19.162491    -3.036326    1.348528    -14.217176    36.146278    -18.204813    4.694304    -27.969435    44.373863    0.000000    0.000000    0.000000    -15.668250    -17.037846    -12.686624    7.506044    18.219475    -15.077881    4.412659    12.747845    -12.752422    0.000000    0.000000    0.000000    
11.781539    155.239487    -121.043037    -1.080055    -5.816723    40.839489    1.167117    -3.876914    1.082693    -2.484435    5.462683    0.458061    -13.228177    5.019619    -24.330288    28.236040    5.051687    -21.407173    14.609278    -2.985952    -20.174185    -13.123324    28.105284    6.197719    -27.753981    27.345154    -110.276138    -3.535712    -13.338258    -18.534458    -24.830803    -8.608505    -1.426198    33.762314    -21.757830    78.438873    2.461018    -4.120163    22.068232    -4.244344    -5.690805    28.959461    19.163586    -3.064530    1.344965    -14.212949    36.162411    -18.210783    4.679648    -27.990501    44.380371    0.000000    0.000000    0.000000    -15.673180    -17.032278    -12.713701    7.497105    18.210657    -15.079864    4.432392    12.745120    -12.749458    0.000000    0.000000    0.000000    
